<?xml version="1.0" standalone="no"?>
<!DOCTYPE svg PUBLIC "-//W3C//DTD SVG 20010904//EN"
 "http://www.w3.org/TR/2001/REC-SVG-20010904/DTD/svg10.dtd">
<svg version="1.0" xmlns="http://www.w3.org/2000/svg"
 width="960.000000pt" height="988.000000pt" viewBox="0 0 960.000000 988.000000"
 preserveAspectRatio="xMidYMid meet">
<metadata>
Created by potrace 1.16, written by Peter Selinger 2001-2019
</metadata>
<g transform="translate(0.000000,988.000000) scale(0.100000,-0.100000)"
fill="#000000" stroke="none">
<path d="M5030 9171 c-10 -7 11 -9 70 -5 107 8 318 -17 435 -51 47 -14 89 -25
93 -25 4 0 0 -5 -8 -11 -12 -9 -12 -10 4 -5 27 9 231 -68 222 -83 -2 -3 6 -7
19 -7 24 -2 137 -65 130 -73 -3 -2 -11 1 -18 7 -8 7 -17 9 -20 5 -4 -3 -7 -2
-7 4 0 12 -50 36 -58 28 -3 -3 0 -5 6 -5 6 0 17 -6 24 -13 24 -22 67 -47 83
-47 9 0 13 -5 10 -10 -3 -6 1 -13 10 -17 33 -12 62 -49 51 -65 -13 -21 -3 -40
32 -61 27 -15 32 -16 45 -2 17 17 73 11 75 -8 1 -7 4 -24 7 -38 6 -22 1 -29
-34 -52 -28 -19 -52 -27 -78 -26 -23 1 -29 3 -15 6 33 6 27 23 -9 23 -48 0
-143 -55 -156 -90 -7 -18 -32 -42 -66 -64 -31 -20 -59 -41 -62 -46 -5 -8 -12
-7 -23 2 -9 7 -13 8 -9 2 4 -7 0 -17 -8 -24 -8 -7 -15 -9 -15 -5 0 4 -7 1 -17
-6 -13 -11 -17 -11 -20 -1 -7 19 -23 14 -53 -18 -15 -16 -23 -30 -18 -30 6 0
-13 -16 -41 -35 -28 -19 -54 -35 -58 -35 -5 0 -37 -21 -73 -46 -36 -25 -76
-53 -90 -62 -14 -9 -27 -20 -30 -23 -12 -16 -143 -70 -156 -65 -9 3 -12 1 -9
-4 4 -6 -6 -10 -21 -10 -27 0 -27 0 -8 22 14 15 15 20 4 16 -8 -3 -50 -20 -93
-38 -44 -17 -81 -29 -84 -26 -3 2 -1 12 5 22 12 22 4 54 -14 54 -24 0 -16 13
46 79 33 35 59 66 57 68 -2 2 -33 -10 -69 -26 -88 -39 -126 -47 -134 -27 -6
15 -77 42 -99 38 -5 -1 -1 5 9 13 17 13 18 15 3 15 -9 0 -17 4 -17 9 0 5 -13
14 -30 21 -51 21 -34 30 58 31 97 1 185 12 162 22 -8 3 -90 8 -182 10 -153 5
-171 7 -220 30 -29 14 -78 46 -108 71 -113 93 -244 170 -360 211 -66 23 -61
17 15 -19 137 -64 405 -260 538 -393 67 -67 125 -182 196 -390 67 -196 79
-271 78 -471 -1 -95 -4 -165 -8 -155 -4 10 -19 58 -34 106 -15 49 -29 87 -31
84 -2 -2 7 -47 21 -100 14 -53 25 -102 24 -109 -1 -7 3 -26 10 -43 17 -42 41
-134 42 -165 l1 -25 8 25 c4 14 8 48 9 76 1 28 4 72 7 97 l7 46 45 -50 c25
-28 82 -82 126 -120 45 -38 131 -114 191 -170 105 -95 142 -123 313 -233 65
-42 72 -49 60 -64 -12 -15 -11 -16 4 -4 27 22 69 -15 91 -79 34 -96 40 -102
107 -94 l59 7 22 -72 c12 -39 19 -73 16 -76 -3 -3 -45 -8 -94 -10 -83 -4 -187
-18 -219 -31 -10 -4 -12 0 -8 13 6 17 5 17 -13 -2 -11 -11 -42 -29 -69 -39
-54 -20 -213 -118 -287 -177 -78 -61 -162 -138 -151 -138 6 0 15 5 22 12 6 6
14 9 17 7 6 -7 -36 -92 -51 -101 -8 -6 -9 -19 -4 -45 9 -38 3 -59 -29 -99 -9
-11 4 0 29 26 38 39 107 93 157 123 7 5 25 -7 44 -28 34 -37 49 -41 28 -7 -19
30 -1 98 25 94 10 -2 15 1 12 7 -4 6 8 17 26 26 l33 16 -24 -21 c-27 -24 -16
-27 17 -4 12 8 22 11 22 6 0 -18 72 -92 90 -92 37 0 51 41 35 106 -8 35 -2 39
74 54 36 6 46 5 62 -11 19 -19 19 -18 19 15 0 19 -4 46 -10 61 -9 22 -4 34 42
95 29 38 54 67 56 66 3 -3 -16 -59 -32 -96 -5 -13 10 -15 99 -16 l105 -1 0 33
c0 26 -5 34 -31 45 l-32 13 25 20 c33 27 41 54 29 106 -8 34 -7 41 5 36 8 -3
14 -1 14 5 0 22 18 -3 35 -48 20 -53 42 -75 66 -67 11 3 19 -7 28 -36 6 -22 9
-46 5 -52 -5 -7 -3 -8 6 -3 9 6 11 0 5 -26 -4 -22 -3 -29 3 -20 7 9 13 -5 20
-49 7 -35 9 -66 7 -71 -3 -4 0 -9 7 -11 8 -3 12 -37 12 -109 l1 -104 -56 -115
c-64 -130 -179 -291 -284 -396 -90 -91 -161 -148 -175 -139 -6 4 -9 2 -8 -4 2
-5 -6 -17 -17 -26 -11 -9 4 -4 33 11 30 16 94 66 143 112 126 118 236 269 316
429 l65 131 0 94 c0 51 -7 126 -16 167 -15 69 -15 74 1 87 17 13 17 13 -3 14
-17 0 -24 12 -41 76 l-20 76 59 -58 c61 -61 97 -132 99 -197 1 -20 3 -25 6
-12 8 35 95 238 131 305 53 99 113 180 186 248 97 90 97 90 207 -75 51 -76 98
-158 106 -182 21 -72 8 -242 -24 -306 -33 -65 -94 -155 -156 -229 -26 -32 -62
-82 -78 -112 -29 -51 -99 -124 -119 -124 -17 0 -28 33 -17 51 13 21 3 49 -18
49 -8 0 -21 -11 -27 -25 -6 -13 -20 -27 -30 -31 -12 -3 -17 -12 -14 -20 8 -21
-5 -17 -36 13 l-27 26 -20 -24 c-11 -13 -57 -76 -103 -139 -146 -204 -200
-274 -263 -335 -33 -33 -70 -75 -80 -92 -21 -36 -35 -42 -35 -15 0 20 -36 82
-48 82 -5 0 -15 -19 -22 -42 -12 -40 -14 -41 -20 -18 l-6 25 -8 -22 c-4 -13
-4 -28 0 -34 4 -7 3 -9 -3 -6 -13 8 -27 -56 -18 -83 3 -10 1 -21 -5 -25 -6 -4
-22 -24 -35 -45 -39 -62 -314 -236 -675 -428 -63 -34 -111 -62 -106 -62 11 0
350 180 446 238 41 25 121 76 178 113 56 38 104 69 107 69 6 0 -16 -63 -26
-75 -5 -5 -9 -15 -9 -22 0 -8 -29 -67 -64 -131 -35 -65 -82 -161 -104 -213
-22 -51 -60 -137 -84 -189 -25 -52 -69 -155 -98 -228 -58 -145 -62 -150 -224
-271 -78 -58 -105 -63 -173 -29 -56 28 -74 67 -113 247 -17 75 -39 159 -49
187 -11 28 -23 75 -27 104 -6 44 -5 52 7 45 10 -6 9 -2 -2 11 -9 10 -14 26
-12 34 4 13 3 13 -5 1 -9 -12 -13 -12 -26 -2 -9 7 -13 18 -9 24 3 5 2 7 -4 4
-5 -4 -23 7 -38 23 -16 17 -25 30 -21 30 5 0 3 6 -3 13 -6 8 -7 18 -3 22 4 5
1 5 -6 1 -10 -6 -10 -11 -1 -24 6 -10 -16 11 -50 46 -34 35 -59 67 -56 73 4 5
1 8 -7 7 -7 -2 -12 3 -10 10 1 8 -2 11 -7 8 -11 -7 -157 160 -153 175 1 6 -2
8 -7 5 -12 -8 -44 42 -35 56 4 6 3 8 -4 4 -6 -3 -21 11 -33 31 -13 21 -60 83
-104 137 -44 55 -83 105 -87 110 -4 6 -9 8 -13 5 -3 -3 11 -27 30 -53 20 -25
33 -50 30 -55 -3 -5 0 -13 6 -17 8 -5 10 -2 5 7 -4 8 -1 5 8 -5 8 -10 13 -23
9 -29 -3 -6 -1 -7 5 -3 13 8 35 -28 24 -39 -4 -3 -2 -5 5 -3 6 2 11 -1 11 -6
0 -5 5 -12 11 -15 22 -14 60 -74 54 -85 -3 -6 -3 -8 2 -4 11 10 38 -29 30 -42
-4 -6 -2 -9 4 -8 6 2 38 -31 72 -72 64 -79 119 -140 202 -227 43 -44 47 -51
26 -47 -22 5 -22 4 9 -25 35 -33 55 -40 46 -16 -14 37 8 9 42 -51 44 -78 89
-213 115 -344 27 -135 34 -161 51 -195 17 -31 36 -97 43 -143 2 -15 9 -56 16
-92 13 -73 18 -339 7 -385 -7 -28 -7 -28 9 5 22 46 20 43 40 44 20 1 55 24 67
44 7 11 4 12 -12 3 -11 -6 -22 -16 -25 -23 -2 -7 -7 26 -11 74 -6 80 -5 89 14
108 11 11 20 26 20 33 0 24 -31 57 -55 57 -20 0 -24 6 -30 43 -3 23 -8 49 -11
57 -6 22 76 47 91 28 5 -7 19 -15 30 -16 10 -2 43 -13 71 -23 48 -18 55 -27
45 -56 -1 -1 -12 2 -25 7 -27 10 -30 -6 -7 -34 11 -13 12 -25 4 -49 -5 -18 -8
-38 -5 -45 6 -18 22 -4 22 19 0 10 4 19 10 19 5 0 7 7 4 15 -4 8 -2 15 4 15
11 0 25 35 25 63 0 9 4 17 8 17 5 0 9 4 9 9 0 20 33 85 37 73 5 -14 53 51 53
73 0 8 6 18 13 22 6 4 12 17 12 28 0 13 6 19 17 17 22 -3 49 36 42 62 -3 12 1
29 8 38 18 24 58 13 59 -16 1 -15 3 -12 8 9 3 17 9 26 13 20 3 -5 -1 -34 -8
-64 -8 -30 -13 -59 -11 -65 2 -5 13 31 26 80 13 49 34 127 47 174 14 47 26
108 28 136 2 28 7 58 12 65 7 12 5 12 -9 1 -9 -8 -27 -15 -40 -16 -43 -5 -97
-67 -154 -176 -63 -123 -63 -121 15 75 75 188 186 417 197 408 4 -5 5 -2 1 5
-4 7 0 27 10 45 9 17 27 53 40 79 13 25 32 60 42 77 l19 31 0 -28 c0 -65 15
-122 34 -132 31 -17 156 66 280 187 58 57 110 103 115 103 10 0 68 -70 62 -74
-4 -4 -91 -27 -105 -28 -15 -2 -150 -155 -298 -338 -60 -74 -115 -143 -123
-152 -8 -10 -12 -18 -9 -18 3 0 57 62 119 138 144 175 218 264 230 277 7 7 7
-2 3 -25 -5 -19 -9 -44 -10 -55 -7 -57 -39 -106 -108 -165 -108 -93 -142 -149
-171 -282 -8 -36 10 -37 48 -1 16 15 45 35 65 45 37 19 166 61 188 61 7 0 23
12 35 26 20 22 20 23 2 8 -11 -9 -27 -17 -35 -17 -10 0 -10 3 -3 8 7 4 37 59
67 123 52 107 60 119 109 151 77 51 137 75 222 88 89 15 160 7 239 -24 l57
-24 -61 69 c-33 37 -68 70 -77 73 -9 2 -52 12 -94 21 -43 9 -78 18 -78 21 0
13 44 130 51 135 5 3 13 25 18 50 5 24 15 70 22 102 12 57 12 58 -17 88 -63
67 -158 102 -201 74 -28 -19 -28 -20 -2 63 43 138 55 154 58 74 1 -36 -4 -56
-19 -75 l-21 -26 38 -7 c54 -10 92 -30 141 -77 l42 -41 0 46 c0 28 6 53 15 62
9 8 24 41 33 73 l18 58 67 -3 c41 -1 67 2 67 8 0 12 -46 224 -56 257 -4 16 -1
25 10 29 9 3 16 12 16 19 0 8 4 16 8 19 4 2 8 -12 8 -32 1 -52 29 -112 52
-112 18 0 51 -31 70 -67 6 -10 13 -48 17 -86 4 -37 12 -70 18 -74 7 -4 8 5 3
28 -3 19 -9 52 -12 74 l-6 40 23 -22 c17 -17 24 -36 27 -82 4 -54 7 -61 32
-71 16 -7 36 -20 45 -30 23 -26 170 -277 235 -403 36 -69 61 -107 71 -107 9 0
27 -8 40 -19 20 -16 23 -27 21 -74 -1 -30 -8 -74 -15 -98 -7 -24 -10 -55 -6
-69 4 -14 7 -51 8 -83 1 -32 10 -162 20 -290 11 -128 22 -278 24 -335 5 -94 4
-102 -13 -102 -21 0 -87 24 -265 98 -66 27 -121 48 -123 47 -4 -4 105 -211
186 -354 35 -62 60 -116 55 -120 -106 -73 -194 -136 -218 -157 -16 -14 20 8
80 50 142 98 321 217 429 285 92 58 117 80 39 36 -27 -15 -42 -22 -35 -14 6 7
12 28 12 46 0 30 6 61 30 163 5 19 17 70 26 113 9 42 21 77 25 77 4 0 13 16
20 34 7 19 16 33 21 30 15 -9 8 63 -12 127 -10 34 -17 66 -14 70 2 4 0 10 -6
14 -5 3 -10 14 -10 24 0 10 -7 24 -15 31 -9 7 -13 21 -10 31 4 13 2 17 -7 14
-9 -3 -44 58 -107 184 -52 104 -94 193 -93 198 0 4 -7 16 -15 26 -9 9 -13 17
-10 17 4 0 -3 21 -14 48 -36 82 -68 182 -79 242 -6 32 -31 105 -56 162 -63
142 -93 257 -89 338 2 36 -1 86 -7 112 -14 70 20 232 47 222 19 -8 33 22 41
87 11 88 32 160 60 202 14 22 34 67 44 101 23 79 37 110 79 171 65 96 60 97
98 -2 50 -130 115 -287 123 -296 17 -19 -12 89 -41 156 -77 175 -111 281 -115
357 -2 41 -9 116 -15 167 -6 50 -9 97 -6 105 3 7 6 1 6 -13 1 -14 10 -34 21
-44 11 -10 20 -24 20 -31 0 -6 15 -38 33 -71 18 -32 48 -88 66 -126 19 -37 36
-66 38 -64 3 4 -34 121 -49 149 -11 24 -10 48 2 48 6 0 10 8 10 17 0 13 3 14
12 5 7 -7 16 -12 20 -12 10 0 11 94 1 104 -10 10 -33 78 -33 99 0 10 -6 30
-14 45 -17 34 -28 102 -16 102 20 0 68 -63 104 -136 22 -44 50 -96 62 -116 65
-103 477 -904 514 -997 11 -28 49 -108 85 -176 69 -131 77 -160 45 -170 -25
-8 -46 4 -97 57 -201 208 -252 265 -311 350 -37 54 -75 100 -85 104 -10 3 -29
17 -43 31 -26 26 -26 26 -46 6 -17 -18 -18 -25 -8 -63 31 -116 166 -354 286
-505 48 -60 92 -137 98 -168 5 -27 56 -115 81 -141 7 -6 17 -22 24 -35 12 -21
11 -22 -11 -19 -14 2 -40 26 -72 68 -26 36 -60 79 -75 95 -15 17 -39 47 -54
67 -22 29 -69 58 -93 58 -5 0 68 -134 102 -185 18 -28 44 -61 57 -73 21 -20
23 -27 15 -50 -8 -21 -5 -40 12 -84 12 -32 25 -58 30 -58 5 0 25 -32 45 -71
56 -112 93 -159 139 -180 55 -24 57 -26 44 -58 -13 -32 -17 -91 -6 -91 22 0
29 -48 15 -101 -12 -47 -12 -58 -1 -74 19 -26 18 -51 -6 -121 -30 -88 -103
-221 -161 -295 -16 -20 -36 -50 -44 -66 -15 -28 -15 -28 -15 27 l0 54 -48 -47
c-31 -30 -54 -46 -64 -42 -8 3 -21 -1 -28 -9 -10 -13 -9 -21 5 -42 16 -24 16
-26 -2 -40 -10 -8 26 7 79 33 53 26 95 50 93 53 -2 4 4 13 13 22 9 8 26 26 36
39 10 13 26 33 35 43 13 16 13 18 1 11 -8 -4 -5 3 8 17 12 13 22 29 22 35 0 6
3 13 8 15 10 4 47 71 92 164 21 45 43 85 49 89 7 4 24 -1 38 -10 l26 -17 -7
58 c-17 155 -18 194 -7 223 13 29 34 42 59 34 6 -3 12 -10 12 -16 1 -7 12 -25
25 -42 l24 -29 10 28 c6 15 11 33 11 39 1 17 57 -52 68 -83 6 -14 23 -61 40
-105 17 -44 37 -117 46 -163 17 -91 27 -114 54 -134 24 -16 41 -48 64 -118
l18 -55 -6 54 c-9 89 -62 279 -104 373 -40 88 -97 263 -120 370 -11 49 -11 65
4 116 9 32 16 73 16 90 0 31 -109 264 -151 324 -23 31 -25 88 -4 127 8 16 22
67 31 114 15 74 15 90 3 128 -10 33 -19 44 -34 44 -17 0 -20 -7 -21 -52 -2
-74 -10 -98 -39 -113 -41 -22 -45 -16 -210 310 -38 74 -86 166 -108 203 -59
105 -98 211 -96 260 3 51 -13 83 -97 194 -112 149 -152 217 -224 379 -39 87
-74 162 -79 168 -16 20 -100 242 -116 307 -23 91 -43 140 -70 169 -24 27 -55
109 -57 156 -2 40 57 276 86 344 35 80 49 163 41 229 -5 31 -7 159 -6 285 2
165 0 226 -8 221 -8 -4 -10 -36 -5 -99 6 -103 -1 -131 -56 -211 l-32 -46 38
20 c21 11 40 25 43 30 12 19 -1 -145 -15 -188 -10 -30 -11 -47 -4 -56 5 -6 7
-15 4 -18 -3 -3 -2 -12 2 -19 6 -9 11 -2 15 22 l6 35 2 -36 c1 -45 -39 -165
-79 -232 -34 -59 -41 -52 -9 8 29 54 51 150 43 191 l-6 33 -32 -39 c-17 -22
-51 -71 -76 -109 -46 -72 -61 -83 -140 -101 -81 -18 -138 -9 -99 16 7 4 -1 12
-19 20 -17 7 -37 21 -43 32 -12 18 -14 19 -36 5 -13 -8 -23 -11 -23 -5 0 5 7
13 16 16 9 4 14 13 10 22 -3 8 -2 13 3 10 4 -3 17 4 27 16 17 20 14 19 -30 -5
-43 -24 -52 -25 -75 -14 -29 14 -41 47 -18 47 9 0 17 3 19 8 2 4 26 25 53 47
28 21 73 61 100 87 28 26 57 53 66 60 9 7 33 35 55 62 21 28 49 61 62 74 12
14 21 30 20 36 -2 16 24 66 35 66 11 0 36 30 37 44 0 4 -9 6 -20 3 -25 -6 -36
9 -20 28 7 8 -31 -28 -85 -80 -103 -102 -165 -138 -287 -170 -78 -20 -204 -19
-212 2 -8 21 -1 30 31 38 38 9 125 47 120 52 -2 2 -37 -1 -77 -7 -90 -13 -106
-8 -125 37 -18 43 -18 43 -2 43 49 0 265 95 334 146 17 13 36 24 41 24 13 0
23 27 16 44 -3 8 9 22 31 36 54 34 73 85 26 73 -10 -2 -25 2 -32 9 -11 12 -27
7 -110 -35 -73 -38 -111 -51 -154 -55 -42 -3 -56 -2 -51 7 5 7 -6 11 -36 11
-27 0 -38 3 -30 9 11 7 -102 22 -169 22 -9 0 -29 13 -44 29 l-27 28 -35 -21
c-35 -20 -72 -82 -73 -121 0 -14 -16 -4 -67 41 -145 127 -217 177 -377 260
-225 117 -265 133 -423 174 -148 38 -169 41 -333 45 -111 3 -181 1 -190 -5z
m1229 -561 c-30 -26 -32 -30 -13 -30 30 0 46 -24 42 -62 -3 -32 -1 -33 31 -33
19 0 36 -6 39 -13 4 -13 -151 -172 -323 -331 -49 -46 -181 -173 -292 -284
l-202 -200 -60 2 c-49 2 -64 -2 -80 -18 -28 -28 -45 -26 -73 7 -12 15 -52 49
-86 76 -47 36 -60 51 -50 57 10 7 10 9 -3 9 -9 0 -27 9 -40 20 -15 13 -18 20
-9 18 23 -3 132 54 121 65 -5 5 -29 -2 -59 -17 -49 -25 -50 -25 -67 -6 -17 19
-16 20 51 51 38 17 78 35 89 39 32 14 -7 12 -42 -1 -15 -6 -42 -13 -60 -15
-25 -3 -31 -1 -29 13 3 17 146 79 146 63 0 -5 -8 -14 -17 -19 -10 -6 -15 -11
-11 -11 12 0 80 40 118 70 19 14 109 75 200 135 148 97 302 208 460 332 54 42
80 53 80 33 0 -18 40 -10 52 10 7 11 20 20 30 20 9 0 30 11 45 25 15 13 32 25
37 25 5 0 -7 -13 -25 -30z m231 -140 c4 0 18 -27 30 -61 22 -58 23 -68 17
-287 -8 -286 -28 -409 -87 -530 -42 -86 -81 -169 -88 -187 -8 -24 51 54 68 90
33 68 57 105 64 98 3 -3 6 9 7 28 0 28 2 30 9 14 5 -12 9 -14 9 -6 1 8 3 12 6
9 3 -3 0 -29 -6 -57 -9 -44 -20 -62 -69 -109 -32 -31 -69 -77 -82 -102 -14
-25 -35 -62 -48 -83 -12 -21 -20 -40 -17 -44 4 -3 -3 -23 -14 -44 l-19 -39 22
3 c30 3 34 -22 14 -84 -9 -27 -19 -70 -21 -96 l-5 -48 15 35 c13 33 14 25 10
-114 -2 -82 0 -156 5 -165 10 -20 17 -147 8 -156 -10 -10 -48 14 -48 30 0 7
-11 26 -23 42 -14 16 -32 61 -42 103 -10 41 -19 78 -22 82 -2 3 -18 2 -36 -3
-26 -7 -34 -6 -44 8 -7 10 -26 32 -43 49 -27 26 -30 34 -21 55 5 13 12 41 16
62 3 21 9 35 14 33 4 -3 7 8 7 24 l0 30 -33 -20 c-19 -11 -41 -20 -50 -20 -14
0 -13 3 3 22 21 24 13 20 -54 -25 -24 -16 -45 -27 -48 -25 -2 3 3 21 11 41 20
48 20 156 1 163 -21 8 -37 59 -23 73 7 7 7 18 -1 36 -12 25 -12 25 -44 9 -25
-13 -36 -14 -51 -5 -20 13 -52 7 -77 -14 -8 -7 -24 -16 -36 -19 -20 -6 -21 -4
-19 84 2 65 -1 93 -11 101 -7 6 -17 8 -23 5 -5 -3 -23 -3 -41 0 -25 6 -31 11
-27 26 4 14 1 18 -9 14 -31 -12 -11 15 51 70 36 32 65 62 65 68 0 6 -10 0 -23
-14 -30 -35 -127 -104 -127 -92 0 6 24 30 53 53 28 24 76 65 106 91 30 26 57
45 61 43 11 -7 387 396 499 535 20 25 41 50 47 55 6 6 24 28 40 50 16 22 38
50 49 63 25 30 85 63 103 57 8 -3 17 -5 22 -5z m270 -559 c5 -11 10 -32 10
-48 0 -22 2 -25 10 -13 7 11 10 11 10 2 0 -7 4 -10 10 -7 5 3 12 -7 16 -22 3
-15 8 -35 11 -43 2 -8 8 -46 13 -85 5 -38 23 -128 40 -200 17 -71 33 -166 37
-210 l7 -80 8 50 c4 28 10 132 14 233 4 100 11 185 16 188 14 9 9 -295 -7
-400 -17 -111 -34 -181 -42 -173 -5 6 -41 163 -50 224 -3 18 -11 37 -18 43
-38 32 -75 -37 -130 -244 -25 -93 -55 -174 -96 -261 -59 -121 -77 -150 -66
-102 11 43 56 314 82 492 29 198 44 380 45 523 0 63 5 102 15 122 18 35 49 39
65 11z m-1627 -272 c60 -18 80 -29 121 -71 30 -32 44 -53 37 -57 -8 -5 -5 -20
9 -49 11 -22 20 -53 20 -67 0 -14 7 -28 15 -32 14 -5 14 -8 2 -22 -8 -9 -22
-31 -31 -48 -10 -21 -24 -33 -37 -33 -12 0 -17 -4 -14 -11 4 -6 13 -8 21 -5
10 4 11 0 4 -20 -13 -32 -13 -31 9 -37 11 -2 24 0 29 5 16 16 39 -17 46 -66 4
-24 16 -56 27 -70 19 -25 98 -66 125 -66 17 0 30 -25 37 -74 l6 -39 -39 38
c-23 23 -35 42 -29 45 6 4 4 12 -6 20 -13 11 -14 10 -8 -6 6 -16 0 -14 -33 10
-21 15 33 -42 122 -127 88 -86 161 -162 161 -171 0 -8 -4 -13 -9 -10 -5 3 -6
9 -3 14 3 5 1 11 -5 15 -5 3 -10 2 -10 -4 0 -10 -119 70 -235 157 -33 25 -65
45 -71 45 -6 0 -11 7 -10 16 1 10 -6 15 -16 13 -12 -2 -18 4 -18 15 0 12 -3
14 -8 6 -5 -8 -23 3 -55 33 -26 25 -44 50 -41 56 5 7 2 8 -5 3 -15 -9 -163
133 -155 147 3 5 1 7 -4 6 -14 -4 -53 43 -45 55 3 5 1 7 -5 3 -16 -10 -52 43
-52 76 l0 29 28 -19 c15 -11 42 -27 61 -37 l35 -17 -35 42 c-64 79 -62 71 -54
180 5 70 11 100 20 100 8 0 10 9 7 25 -5 31 0 31 91 4z m266 -463 c7 -8 21
-13 32 -11 10 2 19 -1 19 -7 0 -5 -7 -7 -16 -4 -8 3 -12 2 -9 -4 3 -6 13 -22
22 -38 l15 -27 -5 30 c-7 40 5 59 31 51 14 -5 19 -12 15 -23 -4 -10 -2 -14 4
-10 19 12 50 -93 35 -119 -5 -9 -21 -8 -69 8 -58 19 -63 23 -82 69 -31 72 -26
126 8 85z m325 -322 c4 -9 9 -14 13 -11 3 4 12 2 18 -3 9 -8 14 -6 19 5 10 26
30 17 93 -43 l60 -59 -58 -17 c-59 -18 -100 -16 -130 7 -21 16 -59 91 -59 117
0 25 35 28 44 4z m548 -369 c60 -47 76 -53 96 -33 7 7 12 10 13 8 0 -3 2 -15
5 -27 6 -34 -23 -94 -42 -86 -13 5 -15 2 -10 -15 5 -15 1 -29 -14 -44 -17 -18
-20 -30 -15 -58 7 -35 7 -35 -14 -16 -11 10 -18 24 -14 30 3 6 3 8 -2 4 -11
-11 -36 12 -28 25 4 6 1 7 -6 2 -20 -12 -60 35 -96 113 -22 46 -42 75 -55 80
-19 7 -13 12 42 34 34 14 68 26 73 27 6 1 36 -19 67 -44z m-28 -1307 c-22 -70
-32 -93 -45 -99 -8 -3 -31 -14 -52 -23 -21 -9 -62 -34 -91 -55 -40 -30 -59
-38 -79 -34 -15 3 -27 8 -27 10 0 11 70 99 102 130 41 39 142 93 175 93 21 0
23 -3 17 -22z m31 -386 c34 -12 57 -29 73 -52 32 -48 26 -74 -17 -78 -70 -7
-165 53 -189 119 -10 25 -9 26 36 27 26 1 69 -6 97 -16z"/>
<path d="M4053 9052 c-66 -34 -173 -112 -280 -204 -34 -29 -70 -46 -163 -75
-139 -43 -144 -48 -155 -170 -6 -60 -5 -77 9 -98 l17 -26 35 30 c19 17 39 31
44 31 5 0 16 13 24 29 18 33 194 182 274 230 31 19 84 51 117 71 33 20 103 61
155 90 52 29 96 54 98 56 6 4 -21 49 -37 61 -27 20 -62 14 -138 -25z"/>
<path d="M4020 8573 c-22 -115 -21 -505 1 -553 15 -34 16 -31 22 135 7 173 20
259 58 375 l21 65 -33 27 c-18 16 -38 28 -44 28 -6 0 -17 -35 -25 -77z"/>
<path d="M4140 8563 c0 -4 9 -19 20 -33 25 -32 25 -39 -1 -33 -19 5 -17 -1 18
-53 35 -52 123 -196 176 -288 l17 -31 0 28 0 28 29 -20 c36 -26 37 -26 44 0 7
25 27 16 27 -11 0 -10 5 -22 10 -25 6 -3 10 -13 10 -22 0 -8 13 -31 30 -49 65
-75 78 -127 81 -324 1 -58 6 -110 10 -116 21 -26 6 -268 -23 -397 -11 -49 -18
-91 -15 -93 9 -9 64 150 78 226 18 94 19 490 2 572 -8 38 -33 91 -77 163 -81
132 -249 349 -312 403 -52 44 -124 88 -124 75z"/>
<path d="M2904 8250 c-18 -4 -54 -20 -80 -35 -27 -16 -101 -57 -164 -91 -63
-34 -127 -70 -142 -78 -37 -20 -36 -48 7 -134 36 -72 85 -122 253 -260 80 -66
86 -69 162 -81 35 -6 66 -15 70 -20 3 -6 16 20 29 57 13 37 32 84 43 105 10
21 16 43 12 49 -4 6 -3 8 3 5 13 -8 26 20 16 35 -3 6 -1 8 4 5 11 -7 40 50 35
66 -4 14 59 118 68 112 5 -3 12 0 16 6 4 8 3 9 -4 5 -18 -11 -14 10 5 25 15
12 16 12 8 -1 -8 -13 -7 -13 8 -1 19 15 23 26 6 15 -7 -4 -10 -1 -7 7 3 8 11
13 17 11 7 -1 10 2 6 8 -3 5 6 22 22 37 15 16 27 31 25 36 -1 4 4 6 11 5 7 -2
11 5 9 17 -2 11 -5 21 -5 21 -1 1 -58 20 -127 43 -105 34 -137 41 -200 40 -41
-1 -89 -4 -106 -9z"/>
<path d="M3745 7318 c4 -18 19 -51 34 -73 16 -22 31 -52 35 -67 6 -27 53 -135
82 -190 29 -55 10 -87 -42 -67 -47 17 -36 2 13 -19 65 -28 160 -58 206 -66 46
-9 49 -15 -53 117 -112 147 -187 254 -228 329 -40 74 -57 87 -47 36z"/>
<path d="M2907 7253 c-21 -27 -79 -90 -130 -141 -85 -86 -88 -92 -52 -76 37
15 38 15 25 -2 -16 -19 -22 -22 58 27 41 24 35 14 -43 -76 -73 -85 -150 -192
-159 -223 -4 -12 -12 -20 -17 -17 -5 4 -9 1 -9 -5 0 -7 -13 -29 -30 -50 -16
-21 -30 -43 -30 -49 0 -6 -5 -11 -11 -11 -8 0 -8 -5 1 -15 9 -10 9 -15 1 -15
-6 0 -11 -5 -11 -11 0 -6 7 -9 15 -5 8 3 15 0 15 -7 1 -7 7 -1 16 13 l15 25
-6 -30 c-3 -16 -7 -52 -10 -80 -4 -27 -15 -99 -26 -160 -29 -165 -66 -464 -58
-476 13 -21 186 98 297 205 88 85 98 112 107 308 3 75 10 161 15 190 6 29 14
145 20 257 6 118 19 255 31 323 11 64 19 124 17 133 -2 10 -16 -1 -41 -32z
m-187 -854 c25 -132 25 -150 -2 -173 -13 -11 -49 -43 -81 -73 -32 -29 -63 -53
-69 -53 -7 0 -9 36 -6 113 l5 114 62 92 c35 51 64 91 67 89 2 -2 12 -51 24
-109z"/>
<path d="M3487 6987 c2 -23 8 -60 13 -82 5 -22 14 -62 19 -90 19 -94 98 -349
110 -353 8 -3 10 4 5 25 -10 44 -10 48 4 46 17 -4 15 11 -9 87 -11 36 -17 76
-14 90 4 20 3 22 -6 10 -8 -12 -9 -8 -5 18 4 21 2 31 -4 27 -6 -4 -10 5 -10
22 1 32 -4 61 -12 83 -4 8 -9 33 -13 55 -6 35 -20 54 -67 92 -13 11 -15 8 -11
-30z"/>
<path d="M3933 6751 c49 -53 119 -101 148 -101 31 0 82 22 111 47 16 15 16 17
-6 46 l-24 30 -125 1 -126 1 22 -24z"/>
<path d="M4977 6536 c-9 -188 -26 -325 -44 -363 -8 -18 -13 -40 -9 -48 4 -10
2 -14 -5 -9 -8 5 -10 -3 -7 -24 2 -17 1 -29 -3 -26 -4 2 -12 -11 -18 -29 -6
-18 -26 -50 -44 -72 l-32 -39 -5 79 c-6 83 -10 83 -28 0 -6 -27 -14 -63 -17
-80 -9 -40 7 -23 21 23 l12 37 1 -44 1 -45 36 42 c19 23 40 41 46 39 6 -1 15
9 19 23 6 21 7 22 9 5 3 -31 47 191 59 299 13 116 26 366 19 366 -3 0 -8 -61
-11 -134z"/>
<path d="M5525 6506 c-22 -12 -78 -44 -125 -71 -96 -54 -211 -129 -286 -187
-37 -27 -58 -53 -74 -89 -12 -28 -19 -53 -16 -56 3 -3 40 27 83 66 96 86 269
222 381 297 45 30 82 57 82 60 0 6 -1 5 -45 -20z"/>
<path d="M2470 6434 c-74 -57 -228 -214 -289 -295 -55 -73 -58 -78 -75 -182
-15 -84 -17 -132 -12 -215 7 -117 44 -314 75 -404 21 -60 14 -84 -13 -46 -17
24 -22 13 -6 -12 7 -11 -6 -23 -60 -53 l-69 -38 -113 36 c-62 20 -160 51 -218
69 -65 21 -109 30 -115 25 -6 -6 -10 -121 -10 -287 l0 -278 -36 -44 c-35 -43
-93 -131 -117 -176 -7 -13 -7 -25 -1 -35 9 -12 10 -12 6 1 -6 20 11 52 23 45
6 -3 8 0 5 7 -6 17 78 134 94 130 7 -1 10 1 8 5 -3 5 1 16 8 26 11 15 13 12
19 -25 4 -24 11 -105 16 -180 5 -75 14 -147 20 -158 9 -16 8 -25 -2 -38 -9
-11 -9 -14 -1 -8 8 4 28 -5 50 -23 21 -16 64 -46 96 -65 l59 -35 -43 -27 c-59
-37 -143 -122 -166 -170 -28 -54 -51 -195 -58 -344 -3 -69 -8 -156 -12 -194
l-6 -68 24 7 c13 4 54 22 91 40 l67 33 17 -52 c20 -61 50 -122 64 -131 12 -7
121 52 206 111 68 48 159 143 216 226 l37 54 5 259 c2 143 8 293 12 333 l7 73
76 51 c42 28 79 56 82 61 4 5 16 57 29 116 l22 108 -20 54 c-35 93 -100 223
-127 252 -15 16 -23 33 -19 40 4 6 4 9 0 5 -5 -4 -27 5 -50 19 -119 74 -196
126 -196 133 0 17 45 19 62 3 10 -9 20 -14 23 -11 3 3 -1 11 -10 18 -8 7 -15
16 -15 20 0 13 100 61 112 54 6 -4 8 -3 5 3 -4 6 7 16 23 22 17 6 43 16 59 22
17 6 35 8 42 3 7 -4 10 -3 6 2 -3 6 48 25 114 43 262 71 557 103 767 82 246
-24 377 -62 572 -164 124 -65 200 -119 270 -192 54 -56 139 -105 252 -146 45
-17 99 -42 118 -57 30 -22 32 -23 15 -3 -10 12 -57 40 -105 62 -183 87 -216
105 -253 138 -29 26 -35 36 -25 44 9 6 8 7 -5 3 -21 -7 -82 47 -73 63 3 5 -5
12 -18 15 -13 3 -75 36 -137 73 -165 98 -313 158 -424 173 -49 6 -96 17 -104
23 -8 7 -12 8 -9 2 4 -7 -51 -9 -161 -7 -159 3 -179 2 -407 -38 -131 -23 -291
-57 -354 -75 -74 -21 -117 -29 -121 -23 -9 15 -27 160 -40 329 -9 125 -9 158
5 232 29 154 112 364 187 474 16 23 29 45 29 49 0 4 12 21 27 36 35 36 28 34
-27 -8z m-642 -2661 c-41 -42 -65 -59 -69 -50 -4 6 -9 46 -11 87 l-4 75 70 62
71 63 3 -87 3 -87 -63 -63z"/>
<path d="M3331 6415 c-1 -6 8 -43 19 -83 11 -39 19 -75 19 -79 -4 -27 3 -63
11 -58 6 3 11 -2 11 -12 5 -72 28 -163 46 -181 7 -7 13 -22 13 -32 0 -10 5
-22 10 -25 6 -3 10 -11 10 -16 0 -6 -4 -8 -9 -4 -6 3 -8 -10 -5 -32 5 -30 3
-35 -6 -23 -23 30 2 -34 51 -128 48 -95 145 -232 163 -232 5 0 2 8 -7 18 -10
10 -15 21 -12 24 3 2 -6 15 -19 27 -20 19 -22 27 -15 59 5 23 4 53 -2 77 -13
48 -82 218 -134 330 -49 106 -51 111 -101 255 -23 69 -43 120 -43 115z"/>
<path d="M3950 6168 c0 -2 9 -34 21 -69 45 -140 171 -353 266 -452 47 -49 75
-58 32 -10 -16 18 -9 14 20 -10 44 -37 59 -36 56 2 -2 37 -72 105 -160 156
-37 22 -76 53 -86 70 -25 40 -24 52 3 29 24 -21 22 -17 -29 64 -19 29 -52 89
-73 134 -37 76 -50 98 -50 86z"/>
<path d="M3890 5929 c0 -26 -1 -26 -40 -16 -22 6 -42 9 -45 6 -3 -3 4 -31 14
-62 l20 -56 -22 -4 c-20 -3 -19 -5 8 -16 17 -6 36 -14 43 -16 6 -2 12 -13 12
-24 0 -11 6 -26 13 -33 7 -7 20 -31 30 -53 10 -22 27 -51 37 -65 l20 -25 0 38
c0 20 -4 37 -10 37 -5 0 -10 7 -10 15 0 12 12 15 58 13 54 -2 59 -5 95 -45 21
-24 47 -43 57 -43 38 0 31 82 -8 94 -11 4 -57 48 -103 98 -174 191 -169 186
-169 157z"/>
<path d="M7697 5810 c-5 -42 0 -56 79 -210 96 -186 91 -178 135 -204 l32 -19
-28 44 c-23 38 -151 298 -196 399 l-16 34 -6 -44z"/>
<path d="M7136 4574 c-16 -19 -35 -33 -42 -30 -9 3 -11 0 -7 -11 5 -13 2 -15
-11 -10 -10 4 -15 3 -11 -3 12 -19 -6 -32 -23 -18 -15 12 -16 11 -3 -5 13 -16
12 -21 -11 -44 -23 -23 -32 -25 -112 -24 -48 1 -99 4 -114 8 -27 6 -27 6 11
-40 21 -25 46 -64 56 -87 l18 -41 39 48 c21 26 87 103 147 171 59 67 104 122
100 121 -5 0 -21 -16 -37 -35z"/>
<path d="M7268 4388 c-8 -13 -41 -72 -73 -133 -32 -60 -70 -126 -85 -145 -15
-19 -32 -51 -38 -70 -7 -19 -48 -102 -92 -184 -82 -153 -178 -349 -162 -331 5
6 35 60 67 120 31 61 60 114 65 118 4 5 25 0 46 -11 22 -11 57 -25 79 -32 22
-7 86 -34 143 -61 79 -37 102 -44 98 -31 -3 9 -14 56 -25 103 -15 62 -41 128
-92 228 l-72 140 28 53 c48 88 82 138 89 131 4 -4 4 0 1 9 -4 9 5 39 19 67 27
53 29 67 4 29z"/>
<path d="M4154 4376 c-11 -23 -8 -25 93 -70 114 -51 128 -54 119 -29 -4 9 -1
20 5 24 24 15 -1 37 -78 68 -95 38 -124 39 -139 7z"/>
<path d="M3389 4133 c-104 -101 -120 -128 -73 -122 3 0 12 -8 19 -18 13 -17
22 -10 122 89 l107 107 -21 21 c-12 11 -29 20 -38 20 -9 0 -61 -43 -116 -97z"/>
<path d="M3954 4186 c-61 -27 -52 -61 23 -88 28 -10 33 -17 31 -38 -3 -23 -7
-25 -55 -25 -61 0 -72 -8 -48 -35 12 -14 31 -20 57 -20 49 0 76 14 88 45 7 17
14 22 30 18 41 -11 82 56 60 97 -17 31 -38 24 -42 -12 -2 -21 -8 -33 -18 -33
-11 0 -15 11 -15 43 0 61 -40 79 -111 48z"/>
<path d="M5597 4038 c-9 -29 -28 -107 -42 -173 -51 -236 -87 -365 -196 -690
-146 -434 -163 -470 -267 -564 -85 -77 -141 -149 -186 -238 -39 -78 -31 -78
12 0 20 37 54 87 74 111 41 48 158 142 158 126 0 -19 -22 -110 -26 -110 -3 0
-13 4 -23 9 -13 7 -18 6 -18 -3 0 -7 7 -13 15 -12 8 1 24 -12 36 -27 16 -22
21 -42 20 -87 -1 -55 -41 -193 -53 -186 -3 2 -7 -12 -8 -31 -2 -39 -42 -128
-101 -226 l-41 -67 16 -45 15 -45 146 0 c144 1 147 1 165 25 15 21 19 63 27
312 6 158 14 351 19 427 l9 140 -34 98 c-19 55 -32 103 -29 108 3 5 19 51 35
102 16 51 47 146 69 210 22 64 51 158 65 210 81 308 109 417 136 537 32 138
35 181 7 89z"/>
<path d="M8895 3690 c-3 -5 -17 -10 -31 -10 -27 0 -31 -23 -14 -95 12 -52 47
-327 55 -435 4 -47 13 -96 20 -110 l13 -25 9 30 c17 61 1 599 -19 638 -10 19
-24 22 -33 7z"/>
<path d="M8180 3563 c-41 -35 -104 -83 -140 -108 -36 -24 -108 -78 -160 -120
-52 -42 -147 -108 -210 -147 -63 -40 -133 -88 -155 -108 -66 -59 -205 -164
-282 -214 -40 -25 -75 -51 -78 -56 -3 -5 5 -14 17 -21 22 -11 22 -11 8 6 -13
16 -13 19 0 27 8 4 55 33 104 64 77 47 91 53 99 39 5 -9 23 -32 39 -51 l31
-35 -22 -37 c-12 -20 -34 -63 -48 -94 -24 -56 -36 -68 -47 -50 -7 11 -126 104
-126 99 0 -3 28 -29 63 -57 75 -64 97 -94 97 -140 0 -68 -27 -114 -101 -170
-38 -29 -69 -55 -69 -57 0 -7 48 25 98 65 23 19 42 30 42 26 0 -5 25 -36 55
-69 31 -33 58 -70 61 -83 6 -21 1 -77 -11 -119 -3 -10 2 -2 11 16 8 19 15 55
14 80 0 26 -1 55 -1 66 0 14 -2 16 -8 7 -6 -9 -24 4 -64 47 l-55 60 25 53 c18
38 24 62 20 90 -3 21 -1 38 4 38 5 0 9 -4 9 -10 0 -22 49 42 55 72 4 24 3 29
-4 18 -5 -8 -13 -11 -16 -8 -4 4 0 16 8 28 11 15 16 18 20 8 2 -7 8 -10 12 -6
5 5 3 19 -3 34 -10 21 -9 28 4 42 15 15 16 14 9 -8 -5 -17 -4 -22 3 -15 5 6
12 24 15 42 5 27 4 31 -10 26 -12 -5 -11 -1 4 14 14 14 24 41 28 80 4 32 11
77 16 101 5 24 7 47 5 51 -3 5 7 14 22 20 14 7 59 37 99 67 39 30 74 54 78 54
12 0 235 170 235 179 0 5 12 13 28 19 39 14 262 197 250 207 -2 1 -37 -27 -78
-62z"/>
<path d="M4755 3588 c-18 -55 -131 -288 -165 -338 -20 -30 -47 -74 -59 -97
l-21 -43 48 -27 c48 -28 48 -29 39 -63 -11 -44 -11 -44 -38 -29 -31 16 -90 29
-83 18 3 -5 14 -9 24 -9 10 0 25 -7 33 -15 8 -8 17 -11 21 -8 3 4 6 1 6 -6 0
-7 5 -9 10 -6 6 3 10 -5 10 -18 0 -15 10 -31 25 -41 26 -17 26 -40 1 -30 -8 3
-23 -7 -35 -22 -11 -15 -21 -23 -21 -19 0 4 -7 2 -15 -5 -8 -7 -13 -15 -11
-19 2 -3 -14 -17 -35 -31 -44 -27 -54 -50 -11 -25 15 9 63 45 107 81 44 35 91
67 105 70 76 16 142 39 156 55 16 18 14 18 -37 0 -30 -10 -85 -22 -122 -26
l-69 -7 6 29 c19 98 19 104 -4 128 -12 13 -28 21 -36 18 -32 -12 -24 30 17
100 24 39 45 81 46 92 1 11 20 61 43 110 52 111 84 195 77 201 -3 3 -8 -5 -12
-18z"/>
<path d="M8660 3462 c0 -23 4 -42 9 -42 6 0 9 -8 9 -17 -1 -10 5 -63 12 -118
13 -105 7 -382 -10 -420 -4 -11 -15 -56 -24 -100 -9 -44 -32 -149 -52 -232
-20 -84 -34 -160 -30 -168 4 -12 10 -13 33 -3 71 30 159 161 150 221 -6 39 16
240 39 354 15 74 15 87 1 145 -8 35 -18 88 -22 118 -4 30 -14 64 -21 75 -8 11
-14 25 -14 33 0 7 -9 31 -19 53 -11 22 -23 54 -27 72 -3 18 -13 41 -20 52 -13
18 -14 16 -14 -23z"/>
<path d="M3264 3111 c3 -5 30 -12 59 -16 28 -4 97 -17 152 -30 55 -12 133 -28
173 -35 48 -8 79 -19 92 -32 12 -13 60 -30 137 -49 161 -39 155 -35 101 -69
-48 -30 -74 -63 -63 -80 9 -15 83 -51 143 -70 49 -15 51 -17 35 -32 -46 -42
-197 -102 -339 -135 -41 -9 -74 -21 -74 -25 0 -5 -13 -2 -30 7 -26 14 -33 14
-58 1 -25 -13 -82 -99 -82 -123 0 -9 116 -29 220 -38 38 -3 35 -1 -22 13 l-68
16 0 58 c0 32 3 58 7 58 4 0 23 -15 42 -32 27 -25 30 -26 12 -6 -43 49 -15 41
31 -8 24 -27 43 -57 43 -70 1 -13 5 -28 11 -34 10 -10 236 -82 241 -76 5 5
-101 43 -157 56 -25 6 -52 13 -62 16 -17 5 -18 20 -4 43 6 10 5 12 -2 7 -7 -4
-12 -3 -12 3 0 6 -18 29 -40 52 -22 24 -37 46 -33 49 5 4 39 12 77 20 38 7 96
21 128 30 57 18 58 18 58 -1 0 -19 16 -25 36 -11 5 4 16 22 23 40 12 28 108
118 118 109 1 -2 -2 -18 -8 -35 -8 -23 -8 -36 1 -49 11 -17 11 -17 5 1 -8 28
12 82 38 99 12 8 45 19 72 26 l50 12 -2 95 c-1 79 1 95 13 90 8 -3 14 1 14 10
0 8 4 13 8 10 14 -8 54 25 48 39 -2 7 1 16 9 19 10 3 12 0 8 -12 -6 -15 -5
-15 11 -3 16 13 16 15 1 23 -11 7 -29 -1 -67 -31 -28 -23 -55 -41 -61 -41 -6
0 -7 -33 -3 -95 l7 -95 -42 -6 c-23 -4 -53 -17 -67 -29 -23 -20 -28 -21 -51
-8 -14 7 -52 22 -83 34 -79 28 -84 50 -24 101 25 22 46 45 46 52 0 12 -48 37
-97 51 -28 8 -44 72 -22 86 10 6 8 9 -9 9 -20 0 -22 -3 -16 -40 4 -22 5 -40 2
-40 -2 0 -27 6 -54 14 -68 20 -229 51 -419 81 -88 14 -171 28 -183 31 -14 3
-21 1 -18 -5z"/>
<path d="M5008 3053 c-16 -15 -16 -18 -1 -28 14 -10 13 -17 -9 -61 -14 -27
-38 -81 -53 -121 -15 -40 -32 -70 -38 -66 -13 8 -27 -17 -27 -50 0 -15 -27
-139 -61 -275 -72 -291 -82 -351 -62 -359 19 -8 30 5 59 68 26 55 24 56 -16 4
l-23 -30 7 27 c3 15 11 40 18 55 6 15 11 46 9 68 -1 22 7 76 19 119 11 44 20
87 20 96 0 48 124 401 177 504 8 15 10 25 4 22 -6 -4 -11 -2 -11 3 0 6 4 11 8
11 5 0 9 7 9 15 0 19 -9 19 -29 -2z"/>
<path d="M8150 3039 c0 -13 21 -82 45 -154 61 -175 84 -294 89 -462 2 -76 7
-145 11 -154 6 -16 -7 -31 -37 -42 -12 -4 -15 -2 -11 9 3 7 11 14 19 14 11 0
10 4 -3 18 -15 15 -19 15 -24 3 -4 -11 -7 -12 -13 -2 -5 7 -14 10 -20 8 -7 -3
-18 -2 -25 2 -10 6 -9 12 3 24 31 31 18 226 -27 402 -11 44 -23 96 -26 115
-10 66 -17 -63 -9 -158 5 -48 9 -162 11 -253 2 -135 -1 -169 -13 -184 -12 -15
-12 -17 -1 -10 11 6 13 4 8 -7 -3 -9 0 -21 6 -28 9 -10 9 -11 -2 -5 -8 4 -17
2 -22 -6 -4 -7 -11 -10 -15 -6 -4 3 -1 15 6 24 7 10 -5 -2 -28 -27 -23 -25
-41 -48 -42 -52 0 -5 -6 -8 -13 -8 -13 0 -42 -47 -39 -61 1 -4 -30 -37 -68
-74 -39 -37 -70 -71 -70 -75 0 -14 63 -9 89 7 13 8 20 10 17 4 -17 -27 19 -5
120 71 98 74 295 228 318 249 18 16 18 253 1 372 -9 61 -19 122 -21 134 -6 21
-6 21 -26 1 -19 -19 -20 -19 -47 24 -15 24 -51 102 -80 173 -29 72 -55 132
-57 134 -2 2 -4 -7 -4 -20z"/>
<path d="M3044 2727 c4 -48 4 -48 -48 -81 -28 -18 -62 -46 -76 -61 -17 -18 4
-8 60 30 47 32 90 59 96 62 7 2 31 -5 55 -15 24 -11 59 -24 77 -28 l32 -9 -45
-55 c-92 -109 -187 -293 -225 -433 -19 -71 -6 -67 15 5 36 121 112 277 178
366 103 137 101 136 199 128 45 -4 84 -9 87 -12 3 -2 -11 -21 -31 -42 -50 -52
-118 -152 -117 -171 1 -20 37 -100 38 -85 1 6 -6 28 -15 49 -15 37 -15 38 17
84 18 25 51 68 73 95 l41 48 65 -5 65 -5 -50 11 c-27 7 -60 17 -71 24 -30 17
-152 30 -197 21 -28 -6 -51 -2 -92 13 -30 11 -55 25 -55 31 0 6 -12 8 -29 5
-26 -6 -29 -3 -39 36 l-11 42 3 -48z"/>
<path d="M4296 2147 c23 -20 61 -67 84 -104 24 -37 78 -104 121 -148 l76 -80
23 -97 c21 -93 49 -157 50 -116 0 10 10 23 22 29 23 13 27 10 60 -50 29 -52
44 -40 52 41 6 70 7 72 59 122 29 28 37 37 18 20 -96 -81 -163 -110 -200 -86
-14 10 -18 139 -5 209 13 75 -8 23 -26 -63 -10 -49 -19 -81 -19 -71 -2 35 -41
95 -103 158 -35 35 -91 102 -124 149 -35 49 -74 92 -94 104 -35 19 -35 19 6
-17z"/>
<path d="M7407 2084 c-16 -19 -66 -59 -110 -91 -45 -31 -86 -61 -92 -66 -14
-14 64 32 102 61 18 13 37 21 44 17 8 -6 7 -10 -2 -16 -8 -5 -9 -9 -3 -9 14 0
14 -23 2 -82 -5 -26 -11 -68 -13 -95 -4 -53 -20 -139 -30 -164 -3 -10 -2 -20
4 -24 6 -3 11 -16 11 -28 0 -20 0 -20 15 -1 19 25 19 35 0 28 -8 -4 -15 -1
-15 5 0 6 5 11 11 11 5 0 7 4 4 10 -3 5 -2 27 2 47 7 37 8 37 14 -22 4 -44 2
-67 -10 -87 -8 -15 -12 -31 -8 -34 4 -4 8 -5 10 -3 1 2 16 24 33 49 17 25 37
56 43 70 l12 25 -21 -25 -22 -24 7 39 c4 22 13 71 21 108 17 81 17 97 4 97 -6
0 -8 -11 -4 -25 4 -15 2 -25 -5 -25 -6 0 -11 9 -11 19 0 11 -3 28 -6 38 -5 15
-4 16 6 3 9 -13 11 -12 6 5 -13 55 -17 89 -8 76 7 -10 12 -5 18 20 4 19 8 48
9 64 2 17 6 38 10 48 10 24 4 20 -28 -19z"/>
<path d="M3346 1987 l-26 -85 36 -118 c42 -139 86 -238 142 -321 61 -90 80
-90 102 -1 9 34 9 55 2 75 -10 26 -11 25 -7 -12 6 -47 -14 -109 -35 -112 -8
-2 -26 14 -39 34 -27 42 -31 101 -11 202 17 86 20 90 36 56 11 -25 13 -25 8
-5 -21 82 -120 170 -194 170 -26 0 -26 22 0 120 10 41 17 76 15 78 -2 2 -15
-35 -29 -81z"/>
<path d="M1197 2043 c-11 -10 -8 -76 5 -133 15 -63 43 -95 99 -110 57 -16 72
2 66 78 -4 60 -29 92 -108 142 -49 32 -52 33 -62 23z"/>
<path d="M6855 1760 c-11 -4 -24 -6 -30 -4 -13 5 -250 -110 -260 -127 -6 -9
-4 -11 8 -6 17 6 20 -2 20 -55 0 -10 -15 -88 -34 -173 -27 -127 -31 -158 -20
-165 19 -11 47 16 82 80 47 88 72 112 118 113 45 2 52 12 70 97 6 25 24 90 41
144 16 55 29 100 28 101 -2 2 -12 -1 -23 -5z"/>
<path d="M5917 1477 c-57 -81 -70 -120 -42 -131 8 -3 15 -14 15 -25 0 -24 23
-33 53 -22 13 5 63 51 110 103 l87 93 -47 7 c-25 4 -58 15 -72 26 -14 10 -31
21 -36 24 -6 4 -36 -30 -68 -75z"/>
</g>
</svg>
