<?xml version="1.0" standalone="no"?>
<!DOCTYPE svg PUBLIC "-//W3C//DTD SVG 20010904//EN"
 "http://www.w3.org/TR/2001/REC-SVG-20010904/DTD/svg10.dtd">
<svg version="1.0" xmlns="http://www.w3.org/2000/svg"
 width="584.000000pt" height="487.000000pt" viewBox="0 0 584.000000 487.000000"
 preserveAspectRatio="xMidYMid meet">
<metadata>
Created by potrace 1.16, written by Peter Selinger 2001-2019
</metadata>
<g transform="translate(0.000000,487.000000) scale(0.100000,-0.100000)"
fill="#000000" stroke="none">
<path d="M4962 4485 c-74 -16 -156 -61 -231 -124 -100 -86 -136 -110 -163
-111 -15 0 -30 5 -33 10 -9 14 -48 13 -63 -2 -21 -21 -13 -29 12 -13 13 9 27
12 30 7 3 -5 31 -12 63 -16 32 -4 91 -16 131 -27 40 -11 83 -19 95 -17 12 2
-24 15 -80 28 -57 13 -103 27 -103 32 0 4 4 8 8 8 4 0 42 30 84 68 102 91 207
144 291 148 35 1 68 -1 74 -4 6 -4 18 -29 26 -57 l16 -50 -5 60 c-3 33 -8 63
-11 68 -6 11 -70 7 -141 -8z"/>
<path d="M2383 4358 c-13 -6 -23 -15 -23 -19 0 -18 -57 -44 -119 -55 -36 -7
-56 -13 -45 -13 20 -1 21 -4 12 -38 -5 -21 -10 -45 -11 -53 -1 -8 -14 -27 -28
-42 -20 -20 -38 -28 -75 -31 -37 -2 -31 -4 26 -5 57 -1 86 3 120 19 67 30 143
91 165 133 11 20 26 36 33 36 9 0 12 6 8 16 -3 9 -6 27 -6 40 0 26 -19 30 -57
12z"/>
<path d="M4900 4331 c0 -4 16 -30 35 -59 20 -29 33 -57 30 -61 -3 -5 -19 -12
-35 -16 -16 -4 -33 -11 -36 -17 -5 -8 3 -9 27 -3 19 4 43 8 54 9 11 0 23 5 26
9 12 17 84 35 101 26 53 -29 11 -239 -48 -239 -17 0 -19 -16 -3 -26 8 -5 10
-31 6 -83 -6 -89 -4 -85 18 24 9 44 25 100 37 124 29 60 37 171 13 194 -13 14
-16 28 -11 70 3 29 2 41 -2 27 -8 -26 -84 -90 -108 -90 -7 0 -16 11 -20 24 -3
13 -19 36 -34 51 -16 16 -27 31 -25 35 2 4 -2 7 -10 7 -8 0 -15 -3 -15 -6z"/>
<path d="M2488 4237 c31 -32 42 -51 42 -74 0 -18 4 -34 9 -37 11 -7 41 -98 41
-123 0 -10 -25 -38 -57 -63 -32 -25 -79 -64 -106 -87 l-48 -43 -47 24 c-50 25
-145 56 -171 56 -9 -1 -2 -7 14 -15 29 -13 27 -13 -44 -14 -40 -1 -92 5 -115
12 l-41 12 70 6 70 5 -78 2 c-70 2 -79 4 -84 22 -7 28 -22 25 -16 -2 4 -19 3
-20 -6 -7 -7 11 -7 27 -1 49 10 36 8 46 -9 35 -15 -9 -14 -51 4 -107 7 -26 10
-50 6 -53 -5 -2 -50 26 -101 63 -51 37 -111 81 -134 97 -53 38 -108 39 -186 1
-30 -14 -46 -23 -35 -20 22 7 75 13 75 8 0 -2 -20 -12 -44 -22 -47 -21 -67
-42 -41 -42 9 0 13 -5 10 -10 -4 -6 16 -36 44 -66 28 -31 51 -62 51 -69 0 -7
3 -21 7 -31 4 -11 -13 -3 -45 22 -29 21 -52 42 -52 46 0 4 -14 15 -32 24 l-32
17 17 -24 c9 -13 25 -35 34 -49 10 -14 30 -42 46 -62 19 -23 27 -43 23 -54 -5
-12 -2 -15 9 -10 21 8 31 -22 14 -40 -8 -7 -36 -18 -62 -23 -48 -9 -65 -17
-55 -26 2 -3 47 2 99 10 179 30 204 33 208 30 4 -5 -105 -60 -167 -84 -97 -39
-145 -62 -140 -67 3 -2 29 5 58 16 29 11 55 18 58 15 3 -3 0 -5 -6 -5 -9 0
-10 -22 -7 -75 3 -52 2 -75 -6 -75 -8 0 -7 -6 2 -17 13 -16 12 -17 -3 -4 -13
10 -22 10 -31 3 -16 -13 -82 -150 -76 -156 2 -3 39 -1 82 3 42 4 77 4 77 0 0
-20 -97 -194 -122 -219 -27 -27 -48 -38 -48 -25 0 3 20 45 45 94 29 58 56 97
76 112 19 13 27 25 20 27 -7 2 -20 -3 -30 -12 -9 -9 -42 -20 -72 -26 -58 -11
-67 -19 -104 -90 -12 -25 -32 -54 -44 -64 -21 -19 -21 -19 -28 15 -6 33 -7 32
-30 -36 -12 -37 -22 -70 -20 -71 1 -2 20 1 42 6 22 5 51 9 65 9 l25 0 -23 -10
c-13 -5 -31 -16 -40 -25 -15 -15 -13 -16 19 -9 19 4 32 5 29 3 -10 -10 -201
-71 -206 -66 -2 3 16 67 41 143 26 75 44 139 41 142 -3 3 -8 -6 -12 -21 -3
-14 -12 -26 -20 -26 -8 0 -14 -5 -14 -11 0 -5 -4 -8 -9 -4 -6 3 -13 -10 -17
-29 -8 -44 -59 -126 -78 -126 -8 0 -26 -20 -40 -45 -28 -46 -40 -58 -29 -27 3
9 -18 -14 -47 -53 -29 -38 -73 -94 -97 -123 -25 -29 -43 -55 -41 -57 11 -11
433 147 549 206 119 59 198 134 394 369 43 52 83 100 88 105 13 13 -32 -65
-49 -85 -7 -8 -33 -56 -58 -106 -25 -50 -65 -121 -90 -156 -24 -36 -52 -80
-61 -98 -9 -17 -18 -30 -21 -28 -5 5 40 88 92 168 24 39 27 46 9 25 -14 -16
-55 -79 -91 -140 -37 -60 -76 -123 -88 -140 -12 -16 -26 -37 -30 -45 -11 -21
44 45 75 91 15 21 29 36 31 33 3 -3 17 9 32 26 28 34 41 33 50 -5 7 -29 -13
-73 -89 -190 -69 -108 -70 -109 -57 -101 6 4 44 59 84 122 l73 116 6 -37 c19
-113 -43 -387 -134 -595 -74 -170 -113 -216 -305 -360 -113 -86 -122 -94 -72
-64 67 40 209 152 264 209 54 56 183 207 209 245 l17 24 1 -39 c1 -26 6 -8 15
50 7 50 18 109 24 132 12 52 13 74 2 56 -5 -7 -7 35 -5 95 6 221 81 464 220
704 88 153 115 208 103 208 -5 0 -10 -3 -10 -8 0 -8 -164 -300 -175 -310 -3
-4 10 32 30 78 21 47 47 113 59 147 12 35 27 68 34 75 7 7 12 17 12 23 0 19
167 155 190 155 5 0 10 5 10 10 0 14 -6 13 -38 -6 l-27 -16 25 19 c39 28 109
106 104 115 -3 5 0 7 6 6 7 -2 17 6 23 17 7 11 20 30 29 44 10 13 16 27 13 31
-2 4 5 16 18 26 l22 19 -20 -25 c-11 -13 25 20 79 74 55 53 129 116 163 139
35 23 59 43 53 45 -5 2 -10 13 -10 25 0 12 -12 49 -25 82 -14 33 -25 69 -25
79 0 22 -66 106 -83 106 -6 0 8 -19 31 -43z"/>
<path d="M4441 4193 c-6 -15 -26 -81 -44 -145 -32 -114 -33 -117 -53 -104 -28
20 -142 70 -129 57 6 -5 42 -27 80 -48 39 -21 70 -44 70 -50 0 -6 4 -15 9 -20
5 -5 6 -2 1 6 -5 9 -3 12 6 9 8 -3 13 -11 12 -17 -2 -6 0 -10 5 -9 14 3 42
-14 36 -23 -3 -5 0 -8 7 -7 22 5 240 -332 246 -379 4 -40 21 -86 22 -61 1 9
-3 28 -9 43 -5 14 -6 24 -1 21 5 -3 12 -18 15 -33 20 -81 28 -103 35 -99 10 7
4 51 -12 86 -14 32 -100 181 -138 240 -16 25 -32 52 -36 60 -19 42 -85 129
-116 153 l-35 26 3 93 c2 60 10 116 23 158 22 66 24 92 3 43z"/>
<path d="M3185 4189 c-38 -4 -83 -13 -100 -18 l-30 -11 35 6 c19 3 60 7 90 9
55 5 55 5 18 -8 -57 -19 -53 -23 17 -19 62 4 65 3 75 -22 11 -31 40 -34 97
-11 21 8 74 21 117 30 123 23 114 35 -12 15 -50 -8 -66 -8 -85 4 -19 12 -130
39 -146 35 -3 -1 -37 -5 -76 -10z"/>
<path d="M3250 4082 c0 -6 20 -34 45 -62 25 -28 45 -55 45 -60 0 -8 -81 -26
-107 -23 -23 2 -14 -15 15 -26 62 -26 102 -52 102 -66 0 -17 -46 -39 -61 -29
-5 3 -8 1 -7 -5 3 -11 -158 -111 -178 -111 -19 0 -37 -29 -39 -60 -1 -17 0
-30 2 -30 2 0 20 11 41 25 l38 25 94 -50 c90 -48 119 -58 84 -29 -37 31 -149
89 -172 89 -10 0 -23 -5 -30 -12 -7 -7 -12 -8 -12 -2 0 17 31 43 100 83 106
61 154 90 169 100 12 8 11 13 -10 30 -13 11 -39 23 -56 27 -18 3 -33 10 -33
15 0 5 15 9 33 9 17 0 47 9 65 20 l34 21 -62 41 c-34 23 -70 53 -81 66 -10 14
-19 20 -19 14z"/>
<path d="M3701 3690 c-90 -44 -155 -86 -213 -138 -28 -25 -45 -33 -62 -30 -14
3 -31 1 -38 -3 -9 -6 -6 -9 9 -9 47 0 262 -133 360 -222 46 -41 48 -50 5 -19
-38 26 -75 45 -69 34 4 -6 39 -31 79 -58 134 -88 173 -139 203 -265 13 -51 12
-56 -4 -70 -21 -17 -41 -52 -41 -72 0 -7 6 -2 13 12 8 14 18 24 23 23 8 -2 78
-26 114 -39 10 -4 3 -12 -23 -25 -36 -19 -38 -22 -35 -64 4 -56 29 -61 54 -12
9 17 18 34 20 36 2 2 22 -8 44 -22 83 -56 104 -175 30 -178 -32 -1 -17 -6 44
-14 l48 -7 -32 -27 c-31 -25 -32 -30 -25 -67 5 -21 8 -42 7 -46 -5 -21 19 -4
39 28 l22 37 23 -27 c33 -38 48 -99 34 -141 -14 -43 -25 -51 -77 -58 -46 -5
-69 8 -92 51 -17 32 1 127 22 116 8 -5 9 -4 2 3 -5 6 -27 16 -47 23 -43 13
-46 21 -20 58 30 43 32 49 19 50 -7 1 -30 4 -52 7 l-40 4 42 -11 42 -11 -29
-43 c-31 -44 -37 -60 -21 -49 5 3 21 0 36 -7 25 -11 26 -14 24 -89 -2 -53 1
-82 10 -93 11 -14 11 -16 -3 -16 -9 0 -29 7 -44 16 l-27 17 27 -24 c26 -23 28
-30 32 -131 3 -59 10 -118 17 -130 8 -15 10 -61 6 -147 -3 -90 -2 -109 4 -66
8 60 43 213 50 219 2 2 28 7 57 11 l52 7 0 -74 c-1 -69 -12 -183 -25 -245 -5
-20 -4 -24 3 -13 13 20 42 221 42 288 0 28 3 51 8 50 7 -2 85 8 135 18 26 5
27 9 27 61 0 31 -5 84 -12 119 -13 71 -13 71 -96 55 -51 -10 -56 -4 -53 62 2
38 -5 62 -30 110 -25 49 -29 64 -20 79 16 25 15 26 -21 36 -28 7 -34 14 -42
48 -14 66 -37 110 -81 160 -24 26 -41 53 -39 59 3 7 -12 19 -35 28 -49 20 -68
48 -92 135 -11 37 -24 86 -31 109 -13 44 -46 80 -183 199 -80 70 -213 164
-267 190 -21 10 -38 21 -38 25 0 3 26 26 58 50 31 24 63 49 71 56 18 18 101
60 176 89 42 16 53 23 34 24 -14 0 -62 -18 -108 -40z"/>
<path d="M4891 3593 c-12 -68 -33 -120 -72 -181 -23 -35 -17 -60 6 -29 12 17
16 14 49 -37 20 -31 49 -83 66 -116 17 -34 35 -58 40 -55 14 9 174 -336 237
-510 28 -77 73 -240 73 -266 0 -47 68 -161 179 -301 110 -139 127 -169 142
-262 l8 -51 -3 61 c-5 84 -29 131 -131 259 -112 140 -159 212 -173 267 -6 24
-24 97 -41 163 -48 196 -208 558 -316 715 -61 89 -95 151 -89 162 4 7 2 8 -4
4 -18 -11 -15 6 13 66 22 48 46 178 33 178 -2 0 -10 -30 -17 -67z"/>
<path d="M2987 3598 c-37 -106 -77 -276 -77 -326 0 -21 6 -15 24 29 46 114 88
162 149 173 l39 7 -45 29 c-25 16 -51 39 -57 51 -12 22 -8 28 25 43 10 5 -22
36 -36 36 -4 0 -14 -19 -22 -42z"/>
<path d="M3210 3462 c0 -6 3 -13 8 -16 4 -2 4 -44 0 -93 -3 -48 -6 -135 -6
-193 0 -155 15 -62 20 122 3 139 4 146 19 126 9 -12 31 -69 49 -127 17 -58 36
-119 41 -135 5 -16 10 -52 11 -80 1 -41 2 -44 6 -16 4 40 -15 166 -34 223 -7
20 -11 37 -9 37 2 0 22 -34 45 -75 40 -72 57 -95 43 -57 -34 90 -193 324 -193
284z"/>
<path d="M3410 3396 c0 -4 11 -29 25 -56 40 -80 76 -236 73 -316 l-3 -69 -18
50 c-55 146 -74 169 -26 29 16 -49 35 -105 41 -124 11 -38 5 -193 -13 -322 -6
-42 -9 -83 -7 -90 5 -12 10 20 40 252 11 83 11 84 27 60 24 -37 83 -101 88
-96 3 3 -6 20 -20 38 -41 56 -77 124 -77 146 0 12 -4 22 -10 22 -9 0 -7 96 3
106 2 3 29 -19 58 -49 40 -39 62 -71 82 -123 15 -38 67 -144 117 -236 49 -92
90 -172 90 -176 0 -5 7 -15 15 -22 21 -17 21 7 0 30 -19 21 -225 426 -225 442
0 7 15 -2 33 -19 17 -18 63 -45 100 -62 56 -25 70 -37 82 -65 8 -20 24 -40 35
-46 11 -6 20 -15 20 -21 0 -13 50 -91 69 -106 8 -7 19 -13 25 -13 6 0 1 7 -11
15 -26 18 -47 77 -39 110 5 21 2 24 -34 30 -37 6 -40 9 -40 40 0 29 -3 33 -34
39 -19 4 -39 13 -46 21 -7 8 -16 12 -21 9 -19 -11 -124 69 -113 87 3 5 -2 6
-10 3 -9 -3 -16 -2 -16 2 0 5 -25 36 -55 69 -61 67 -91 123 -105 194 -10 54
-100 249 -100 217z"/>
<path d="M3390 3075 c0 -87 -18 -129 -118 -280 -77 -117 -127 -173 -141 -160
-7 7 12 41 63 109 66 89 155 236 142 236 -2 0 -27 -38 -55 -83 -28 -46 -78
-119 -111 -163 -33 -43 -59 -83 -57 -88 2 -5 11 -14 20 -20 43 -27 189 183
278 399 l12 30 9 -32 c12 -46 22 -41 14 7 -8 51 -35 120 -47 120 -5 0 -9 -34
-9 -75z"/>
<path d="M4706 3058 c-4 -18 -11 -69 -16 -113 -16 -151 -43 -299 -64 -348 -35
-86 -147 -197 -198 -197 -10 0 -18 -4 -18 -10 0 -32 104 21 150 77 57 68 76
98 92 144 17 50 41 185 57 319 7 61 9 66 10 29 2 -85 14 -169 22 -163 5 3 7
22 4 42 -3 20 -7 81 -9 136 -5 104 -18 142 -30 84z"/>
<path d="M4855 2613 c-11 -116 -25 -134 -19 -23 4 69 3 91 -5 80 -6 -8 -11
-31 -11 -50 -1 -92 -71 -391 -125 -535 -35 -93 -92 -205 -118 -232 -11 -13
-18 -26 -15 -29 4 -3 17 9 30 26 23 31 23 31 29 8 4 -13 7 -62 8 -110 1 -51 5
-88 11 -88 6 0 8 43 3 119 -5 97 -3 126 10 153 42 90 88 212 111 298 28 105
55 182 56 162 0 -7 4 -11 9 -8 13 9 51 306 38 306 -2 0 -8 -35 -12 -77z"/>
<path d="M2272 2560 c-26 -78 -42 -198 -42 -313 1 -104 3 -119 14 -104 24 32
106 18 106 -18 0 -15 -31 -15 -50 0 -37 30 -43 29 -37 -2 5 -25 2 -32 -13 -36
-17 -4 -18 -13 -15 -88 4 -82 23 -177 24 -119 0 14 -4 45 -8 69 -5 25 -6 54
-2 65 6 14 9 4 14 -36 3 -31 14 -73 25 -94 l21 -39 -1 72 c0 77 5 93 29 93 13
0 13 -3 -2 -26 -22 -35 -13 -41 23 -15 17 12 35 21 41 21 14 0 14 5 1 44 -40
125 -75 274 -94 406 -21 146 -23 153 -34 120z"/>
<path d="M2476 2149 c-9 -20 20 -194 40 -233 20 -42 18 -43 -18 -10 -19 18
-29 23 -25 12 3 -9 9 -32 12 -52 6 -31 9 -34 22 -21 17 18 47 20 37 4 -4 -7
-1 -10 7 -7 7 2 16 15 19 29 8 33 34 31 38 -3 3 -21 -1 -28 -14 -28 -14 0 -16
-7 -11 -41 3 -23 10 -46 16 -52 14 -14 39 8 50 47 7 25 9 26 10 9 1 -13 5 -23
10 -23 18 0 17 -55 -2 -83 -19 -29 -27 -29 -115 -11 -40 8 -20 -18 24 -31 78
-23 128 25 128 124 l0 53 24 -28 24 -29 -4 32 c-3 18 0 34 6 36 7 3 4 12 -6
24 -10 11 -18 29 -18 40 0 23 -81 96 -182 164 -42 29 -58 46 -60 66 -3 22 -6
24 -12 12z"/>
<path d="M4383 1939 c-46 -29 -41 -41 7 -17 21 11 44 17 51 13 41 -26 53 -209
21 -326 -22 -78 -76 -162 -100 -155 -9 2 -39 7 -67 11 -82 11 -46 -4 49 -20
48 -9 106 -24 129 -35 43 -21 63 -20 28 2 -18 11 -21 23 -21 75 0 34 -4 64 -9
67 -4 3 0 41 11 83 28 112 21 229 -17 283 -32 46 -38 47 -82 19z"/>
<path d="M3686 1881 c-16 -17 -35 -27 -45 -24 -18 5 -249 -30 -313 -48 -46
-12 -65 -35 -22 -25 28 6 28 5 -6 -14 -34 -21 -34 -21 -6 -15 29 6 29 6 13
-19 -23 -35 -21 -39 8 -20 14 9 55 19 91 22 l65 5 -8 -39 c-10 -48 -6 -118 8
-162 15 -44 23 -33 20 27 -2 57 15 81 59 81 24 0 29 5 32 28 4 33 32 37 36 4
3 -17 -2 -25 -17 -29 -14 -3 -21 -13 -21 -29 0 -35 18 -74 34 -74 15 0 36 49
36 86 0 13 5 21 13 19 81 -18 75 -13 79 -71 2 -38 -1 -55 -10 -59 -7 -3 -10
-9 -7 -15 3 -5 1 -10 -6 -10 -7 0 -9 -3 -6 -7 15 -14 -18 -33 -60 -33 -53 0
-133 19 -133 31 0 13 -27 11 -35 -2 -10 -15 20 -34 82 -53 41 -13 57 -14 74
-5 15 8 19 8 15 0 -4 -6 -3 -11 3 -11 5 0 13 5 16 10 3 6 21 10 38 11 28 1 29
2 9 8 l-24 6 25 24 c37 34 68 113 70 181 2 54 4 59 22 54 11 -3 34 -21 52 -39
32 -34 49 -33 37 0 -6 15 -4 16 17 5 13 -7 27 -18 31 -24 12 -17 -3 -77 -28
-117 l-23 -36 24 10 c13 7 33 34 46 64 25 57 32 60 85 38 30 -12 34 -18 28
-37 -9 -30 -1 -22 21 21 9 18 12 31 7 27 -9 -5 -70 51 -61 57 2 2 18 9 34 16
l30 14 -35 9 c-19 5 -42 16 -51 24 -8 7 -40 27 -70 44 -30 16 -47 30 -39 31
32 3 67 -4 115 -21 44 -17 47 -17 26 -2 -43 30 -124 51 -223 58 -87 6 -97 9
-100 27 -5 31 -21 30 -52 -2z"/>
<path d="M1981 1820 c-1 -9 10 -78 24 -155 14 -77 28 -157 32 -178 3 -21 10
-40 14 -43 12 -7 11 8 -5 91 -8 39 -13 71 -11 73 1 2 13 -14 26 -34 20 -33 22
-48 20 -126 l-2 -88 51 -72 c69 -100 98 -133 106 -125 4 4 0 15 -9 25 -24 26
-21 33 9 22 14 -6 51 -10 83 -10 l57 0 -13 78 c-7 42 -15 91 -18 109 l-6 31
93 -29 c51 -16 113 -31 138 -34 32 -3 21 2 -40 19 -89 25 -199 63 -263 90 -21
9 -42 14 -47 11 -13 -8 -21 9 -66 143 -23 68 -44 126 -47 129 -11 10 22 -113
48 -182 23 -62 115 -222 152 -266 15 -18 17 -39 3 -39 -6 0 -9 4 -8 8 2 5 -27
38 -64 75 -36 36 -78 86 -93 111 -15 25 -28 46 -30 46 -2 0 -1 -15 1 -32 3
-18 1 -51 -5 -73 -9 -36 -10 -31 -9 45 1 69 -3 93 -20 126 -12 23 -30 74 -41
114 -11 40 -24 77 -29 84 -5 6 -14 25 -20 41 -6 17 -11 23 -11 15z"/>
<path d="M3925 1480 c-13 -21 8 -72 46 -112 36 -38 37 -42 21 -55 -41 -32
-101 -72 -157 -103 -54 -30 -58 -31 -39 -9 107 126 118 145 31 54 -52 -55 -91
-102 -86 -103 13 -5 156 73 217 119 28 22 52 36 52 32 0 -5 -34 -48 -75 -96
-82 -95 -96 -121 -38 -66 22 19 28 22 15 7 -21 -23 -22 -29 -11 -49 6 -13 21
-31 32 -40 25 -19 20 -26 -53 -75 -72 -48 -73 -49 -66 -27 9 28 -3 59 -16 41
-6 -9 -7 -3 -3 17 4 17 16 40 27 52 12 13 19 25 16 29 -3 3 -30 -20 -59 -51
-62 -66 -173 -146 -277 -200 -40 -21 -71 -40 -68 -42 7 -8 128 58 219 119 l88
59 -2 -45 c-3 -45 -4 -47 -78 -98 -70 -48 -221 -189 -221 -206 0 -4 37 29 83
73 45 44 121 106 167 138 145 99 280 187 280 181 0 -2 28 14 61 37 61 41 62
41 55 15 -17 -69 -14 -76 8 -21 27 65 31 85 17 85 -10 0 -48 102 -54 145 -4
30 -4 30 -6 3 0 -16 -6 -28 -12 -28 -8 0 -9 13 -5 40 5 30 3 40 -7 40 -25 0
-97 95 -97 129 0 6 16 -1 36 -14 20 -14 42 -25 48 -25 6 0 2 6 -9 12 -11 6
-32 19 -47 30 -17 12 -29 15 -33 8z"/>
<path d="M5407 1426 c-3 -8 -44 -33 -90 -55 -100 -49 -172 -55 -244 -20 -24
12 -45 20 -47 18 -7 -8 15 -156 34 -229 10 -41 22 -91 25 -110 3 -19 13 -45
21 -57 7 -12 14 -29 14 -37 0 -23 68 -73 114 -84 48 -12 89 -8 166 16 70 21
76 25 101 81 26 56 32 136 14 171 -7 14 -21 79 -30 145 -9 66 -23 131 -30 145
-16 29 -40 37 -48 16z"/>
<path d="M796 1158 c-20 -57 -42 -129 -48 -160 -8 -38 -15 -53 -21 -45 -5 7
-5 -3 -1 -23 3 -19 3 -32 -1 -28 -7 7 -30 -10 -33 -25 -1 -4 -8 -14 -16 -22
-21 -22 -30 -97 -21 -179 5 -39 9 -145 10 -235 2 -91 6 -220 10 -288 4 -75 3
-123 -3 -123 -5 0 -21 9 -35 20 -14 11 -29 20 -33 20 -4 0 -21 12 -36 27 -48
46 -27 -15 26 -75 17 -19 29 -22 99 -22 72 0 78 2 71 17 -23 53 -56 162 -71
230 -33 163 20 594 111 894 19 62 33 115 32 117 -2 1 -20 -44 -40 -100z"/>
<path d="M2370 1001 c13 -19 32 -58 42 -85 15 -43 17 -45 13 -16 l-5 36 82 11
82 11 84 -67 c151 -119 280 -208 326 -224 39 -13 41 -17 67 -100 11 -38 22
-67 24 -65 4 3 -10 79 -25 136 -7 29 -6 33 18 38 15 3 43 10 62 16 48 13 211
80 207 85 -2 2 -47 -12 -99 -31 -115 -42 -207 -60 -259 -51 -44 8 -158 81
-298 193 -93 74 -94 75 -70 89 17 10 18 12 4 8 -40 -14 -91 -23 -153 -28 -60
-4 -64 -3 -77 23 -7 14 -22 33 -31 41 -12 9 -10 3 6 -20z"/>
<path d="M4661 887 c-6 -6 -11 -19 -11 -28 0 -25 -70 -84 -121 -102 -24 -9
-91 -30 -149 -47 -58 -17 -141 -42 -185 -56 -45 -13 -127 -28 -186 -33 -119
-10 -142 -19 -164 -61 -17 -34 -18 -40 -6 -40 5 0 14 14 20 30 13 39 41 49
155 56 57 4 124 17 181 35 50 15 146 44 215 65 69 20 137 43 152 50 26 14 28
13 43 -20 18 -37 55 -76 55 -58 0 6 -9 35 -20 63 -21 51 -21 52 -1 70 11 10
22 27 25 37 4 10 18 23 34 28 l27 10 -27 6 c-15 3 -32 0 -37 -5z"/>
<path d="M257 467 c-38 -121 -64 -228 -81 -350 -19 -127 -18 -117 -7 -117 6 0
12 15 14 33 l4 32 1 -32 c2 -27 6 -33 25 -33 20 0 22 5 25 67 2 59 21 191 38
263 3 14 -8 -4 -26 -40 -17 -35 -35 -80 -40 -100 -6 -28 -8 -30 -9 -10 -1 30
30 163 65 278 14 46 24 85 22 88 -2 2 -16 -34 -31 -79z"/>
<path d="M2946 399 c-10 -6 -41 -20 -70 -30 -38 -13 -44 -18 -25 -19 23 0 28
-7 44 -62 9 -35 19 -70 22 -78 3 -10 -34 -48 -106 -109 -61 -52 -111 -96 -111
-98 0 -1 138 -3 306 -3 l306 0 -7 28 c-3 15 -18 55 -32 90 -28 72 -24 90 13
47 l25 -30 -25 40 c-13 22 -34 69 -46 105 -12 36 -28 71 -36 78 -9 8 -10 8 -4
0 16 -19 12 -25 -35 -52 l-45 -25 -73 65 c-39 35 -74 64 -77 64 -3 -1 -13 -5
-24 -11z"/>
</g>
</svg>
